<svg xmlns="http://www.w3.org/2000/svg" version="1.1" xmlns:xlink="http://www.w3.org/1999/xlink" xmlns:svgjs="http://svgjs.dev/svgjs" width="100%" height="100%" viewBox="0 0 1000 600"><rect width="1000" height="600" x="0" y="0" fill="#f7f7f7"/><g><circle r="166.66666666666666" cx="391.7664133707682" cy="413.9885809102335" fill="#006838" transform="matrix(0.5553094969594986,0,0,0.5553094969594987,0,70.10820036303606)"/><path d="M272.4294143931976 486.4432116762185L256.446778341057 486.4432116762185L256.446778341057 346.6543411683294L277.7569597439111 346.6543411683294L304.60186881667323 421.2399760783189Q307.17684906951814 428.49135725012343 309.6038419515099 435.8315308444399Q312.0604323076722 443.1717044387563 314.6354125605171 450.4230856105608L314.6354125605171 450.4230856105608L315.46414183729473 450.4230856105608Q318.0391220901396 443.1717044387563 320.25893265293695 435.8315308444399Q322.50834068990486 428.49135725012343 325.0537234685791 421.2399760783189L325.0537234685791 421.2399760783189L351.4842679029524 346.6543411683294L373.001631625001 346.6543411683294L373.001631625001 486.4432116762185L356.3974486152771 486.4432116762185L356.3974486152771 409.5193763067491Q356.3974486152771 400.3441593138536 357.2557753662254 388.8307418614782Q358.0845046430031 377.34692188327347 358.73564907475696 368.1717048903779L358.73564907475696 368.1717048903779L357.87732232380864 368.1717048903779L346.80786698399277 399.92979467546473L320.37732254961946 472.38441144516884L308.6567227780497 472.38441144516884L282.2261783436764 399.92979467546473L271.15672300386046 368.1717048903779L270.2983962529122 368.1717048903779Q270.9495406846661 377.34692188327347 271.68947753893184 388.8307418614782Q272.4294143931976 400.3441593138536 272.4294143931976 409.5193763067491L272.4294143931976 409.5193763067491L272.4294143931976 486.4432116762185ZM418.611339321943 361.57146815032723L418.611339321943 361.57146815032723Q413.4909762904239 361.57146815032723 409.99847433828944 358.3749409398991Q406.4763749119844 355.178413729471 406.4763749119844 350.2652330171463L406.4763749119844 350.2652330171463Q406.4763749119844 345.14486998562717 409.99847433828944 342.06673267188154Q413.4909762904239 338.98859535813597 418.611339321943 338.98859535813597L418.611339321943 338.98859535813597Q423.7317023534621 338.98859535813597 427.2538017797672 342.06673267188154Q430.7759012060722 345.14486998562717 430.7759012060722 350.2652330171463L430.7759012060722 350.2652330171463Q430.7759012060722 355.178413729471 427.2538017797672 358.3749409398991Q423.7317023534621 361.57146815032723 418.611339321943 361.57146815032723ZM427.13541188308466 486.4432116762185L409.6729021224125 486.4432116762185L409.6729021224125 382.8816495531814L427.13541188308466 382.8816495531814L427.13541188308466 486.4432116762185ZM489.1421202705561 488.98859445489273L489.1421202705561 488.98859445489273Q478.0726649307402 488.98859445489273 467.9503287643845 484.963337967687Q457.82799259802874 480.9084840063105 450.5766114262242 474.7226119046487L450.5766114262242 474.7226119046487L459.3078663065603 463.00201213307895Q465.9377005207816 468.5367398029869 473.1594842184155 471.9404493326094Q480.41086539022007 475.37375633640255 489.79326470231 475.37375633640255L489.79326470231 475.37375633640255Q500.0339907653482 475.37375633640255 505.1247563226967 470.6677579432723Q510.24511935421583 465.99135702431266 510.24511935421583 459.1543404908969L510.24511935421583 459.1543404908969Q510.24511935421583 451.0742300423147 502.69776344070505 446.90098618425577Q495.12081005302355 442.75733980036745 486.59673749188187 439.5608125899393L486.59673749188187 439.5608125899393Q475.52728215206594 435.50595862856295 465.6121283049047 429.2312941043892Q455.6969744577433 422.92703210604486 455.6969744577433 409.7265586259435L455.6969744577433 409.7265586259435Q455.6969744577433 397.3548144226199 465.0793737698333 388.8307418614782Q474.4617730819233 380.3066693003365 491.2731384108415 380.3066693003365L491.2731384108415 380.3066693003365Q501.099499835491 380.3066693003365 509.2980001807557 383.7399763041297Q517.4965005260204 387.1436858337523 523.4751903084879 392.02726907190635L523.4751903084879 392.02726907190635L515.1583000665406 403.1263218858929Q509.8307547158271 399.07146792451647 504.059247252554 396.5260851458422Q498.3173372634517 393.9511048929973 491.5099182042066 393.9511048929973L491.5099182042066 393.9511048929973Q481.6835567795572 393.9511048929973 477.12554575728007 398.4203234927626Q472.5379372608322 402.91913956669845 472.5379372608322 408.8682318749952L472.5379372608322 408.8682318749952Q472.5379372608322 416.11961304679977 479.6709285359543 419.7305048956167Q486.8039198110763 423.3709942186043 495.5351746914124 426.77470374822684L495.5351746914124 426.77470374822684Q506.84140982459326 431.0367400287977 516.9637459909491 437.22261213045954Q527.0860821573048 443.40848423212134 527.0860821573048 458.0888314207542L527.0860821573048 458.0888314207542Q527.0860821573048 470.6677579432723 517.289318206826 479.8429749361679Q507.49255425634715 488.98859445489273 489.1421202705561 488.98859445489273Z " fill="#f7f7f7" transform="matrix(0.5553094969594986,0,0,0.5553094969594987,0,70.10820036303606)"/><path d="M689.4256684318691 488.98859831950057L689.4256684318691 488.98859831950057Q675.1509175637364 488.98859831950057 662.9195282110015 483.5204477853368Q650.6881388582669 478.0235175115195 641.7664195656839 468.90034004136214L641.7664195656839 468.90034004136214L652.1271258409415 456.8704088662019Q659.3796202336218 464.55459935368464 669.2222911951167 469.21691717755056Q679.0649621566114 473.8792350014165 689.655906349097 473.8792350014165L689.655906349097 473.8792350014165Q703.1248245069319 473.8792350014165 710.5787770771867 467.7491504552224Q718.0327296474416 461.64784564868177 718.0327296474416 451.69005572857304L718.0327296474416 451.69005572857304Q718.0327296474416 441.3293494533154 711.6148477047125 436.66703162944947Q705.1969657619834 432.00471380558355 695.4406340194491 427.65897311790604L695.4406340194491 427.65897311790604L675.9567502740341 419.16894992012544Q666.2291982711533 415.22612558759687 657.3074789785703 407.1390187449652Q648.4145394256409 399.080691641987 648.4145394256409 384.14400676182396L648.4145394256409 384.14400676182396Q648.4145394256409 368.60294734893745 660.5308098197617 358.3573600322938Q672.6470802138824 348.08299297599666 691.0948933317717 348.08299297599666L691.0948933317717 348.08299297599666Q703.1248245069319 348.08299297599666 713.57187000115 352.7453107998626Q724.0476952350216 357.4076286237285 731.300189627702 364.8903609336368L731.300189627702 364.8903609336368L721.9755539799701 376.0568999191923Q715.7591302148155 370.0707140712656 708.1900586859467 366.64592505249993Q700.6209871570779 363.2211360337342 691.0948933317717 363.2211360337342L691.0948933317717 363.2211360337342Q679.6981164289882 363.2211360337342 672.7621991724964 368.60294734893745Q665.8262819160044 373.98475866414077 665.8262819160044 383.1079361342982L665.8262819160044 383.1079361342982Q665.8262819160044 392.86426787683246 673.0787763086848 397.6129249196589Q680.3312707013652 402.39036170213876 688.3895978043433 405.7000317622905L688.3895978043433 405.7000317622905L707.672023372184 413.98859678249664Q719.4717166301161 419.16894992012544 727.5588234727479 427.14093780414316Q735.6459303153795 435.11292568816083 735.6459303153795 450.2510687458984L735.6459303153795 450.2510687458984Q735.6459303153795 466.4252824311617 723.3282017436843 477.70694037533116Q710.9816934323356 488.98859831950057 689.4256684318691 488.98859831950057ZM799.8823092219769 488.98859831950057L799.8823092219769 488.98859831950057Q781.4344961040875 488.98859831950057 767.3612034135293 475.2318827651307Q753.2591309833175 461.44638747110736 753.2591309833175 436.37923423291454L753.2591309833175 436.37923423291454Q753.2591309833175 411.08184307749383 767.3612034135293 397.21000856450996Q781.4344961040875 383.3093943118726 799.8823092219769 383.3093943118726L799.8823092219769 383.3093943118726Q818.3301223398662 383.3093943118726 832.4034150304245 397.21000856450996Q846.5054874606362 411.08184307749383 846.5054874606362 436.37923423291454L846.5054874606362 436.37923423291454Q846.5054874606362 461.44638747110736 832.4034150304245 475.2318827651307Q818.3301223398662 488.98859831950057 799.8823092219769 488.98859831950057ZM799.8823092219769 474.91530562894224L799.8823092219769 474.91530562894224Q812.948311024663 474.91530562894224 820.9202989086806 464.23802221749617Q828.8922867926983 453.5607388060501 828.8922867926983 436.37923423291454L828.8922867926983 436.37923423291454Q828.8922867926983 418.967491742551 820.9202989086806 408.17508937249096Q812.948311024663 397.41146674208443 799.8823092219769 397.41146674208443L799.8823092219769 397.41146674208443Q787.0465453365188 397.41146674208443 778.9594384938872 408.17508937249096Q770.8723316512555 418.967491742551 770.8723316512555 436.37923423291454L770.8723316512555 436.37923423291454Q770.8723316512555 453.5607388060501 778.9594384938872 464.23802221749617Q787.0465453365188 474.91530562894224 799.8823092219769 474.91530562894224ZM891.0565244442441 488.98859831950057L891.0565244442441 488.98859831950057Q873.0404074211572 488.98859831950057 873.0404074211572 466.19504451393374L873.0404074211572 466.19504451393374L873.0404074211572 338.9885952454927L890.0204538167184 338.9885952454927L890.0204538167184 467.46135305868745Q890.0204538167184 474.91530562894224 894.7978905991982 474.91530562894224L894.7978905991982 474.91530562894224Q896.6397939370219 474.91530562894224 898.5104770144989 474.4836095341399L898.5104770144989 474.4836095341399L900.7840764471249 487.34815315925147Q897.0714900318243 488.98859831950057 891.0565244442441 488.98859831950057ZM955.2929033508415 488.98859831950057L955.2929033508415 488.98859831950057Q924.4122427026431 488.98859831950057 924.4122427026431 449.6179144735215L924.4122427026431 449.6179144735215L924.4122427026431 385.81323166172655L941.6225270154321 385.81323166172655L941.6225270154321 447.34431504089554Q941.6225270154321 461.44638747110736 946.0833866617237 467.8642694138363Q950.5154665683616 474.2821513565654 960.4732564884704 474.2821513565654L960.4732564884704 474.2821513565654Q968.1286672362995 474.2821513565654 974.3450910014541 470.2529878050763Q980.5615147666088 466.19504451393374 987.6125509817147 457.30210496100426L987.6125509817147 457.30210496100426L987.6125509817147 385.81323166172655L1004.6213771169292 385.81323166172655L1004.6213771169292 486.5135407093001L990.5193046867174 486.5135407093001L989.0803177040428 470.7710231188392L988.4471634316659 470.7710231188392Q981.3961272165601 479.0595881390453 973.5392582911563 484.03848309909966Q965.6536096260992 488.98859831950057 955.2929033508415 488.98859831950057ZM1078.383849848833 488.98859831950057L1078.383849848833 488.98859831950057Q1058.2668118310412 488.98859831950057 1044.7115544542457 475.2318827651307Q1031.1275173377967 461.44638747110736 1031.1275173377967 436.37923423291454L1031.1275173377967 436.37923423291454Q1031.1275173377967 411.08184307749383 1045.6325061231573 397.21000856450996Q1060.137494908518 383.3093943118726 1079.6213786539333 383.3093943118726L1079.6213786539333 383.3093943118726Q1089.579168574042 383.3093943118726 1096.6014250494943 386.8493022892523Q1103.6524612646003 390.3604305269785 1109.0342725798037 395.13786730945844L1109.0342725798037 395.13786730945844L1100.3427912044485 406.3331860346674Q1095.997050516771 402.39036170213876 1091.1332745153304 399.8865243522849Q1086.2407187742365 397.41146674208443 1080.25453292631 397.41146674208443L1080.25453292631 397.41146674208443Q1066.5553768512473 397.41146674208443 1057.6624372983176 408.17508937249096Q1048.7407180057348 418.967491742551 1048.7407180057348 436.37923423291454L1048.7407180057348 436.37923423291454Q1048.7407180057348 453.5607388060501 1057.3458601621292 464.23802221749617Q1065.951002318524 474.91530562894224 1079.8228368315076 474.91530562894224L1079.8228368315076 474.91530562894224Q1086.8738730466134 474.91530562894224 1092.7737196755797 471.8934329653254Q1098.6735663045458 468.90034004136214 1103.4510030870256 464.75605753125905L1103.4510030870256 464.75605753125905L1110.9049556572804 476.1528344340425Q1096.3999668719198 488.98859831950057 1078.383849848833 488.98859831950057ZM1141.785616305479 365.0918191112113L1141.785616305479 365.0918191112113Q1136.8067213454246 365.0918191112113 1133.381932326659 361.98360722863396Q1129.9859230475467 358.8753953460567 1129.9859230475467 354.0979585635768L1129.9859230475467 354.0979585635768Q1129.9859230475467 349.1190636035224 1133.381932326659 346.1259706795591Q1136.8067213454246 343.13287775559576 1141.785616305479 343.13287775559576L1141.785616305479 343.13287775559576Q1146.7645112655334 343.13287775559576 1150.189300284299 346.1259706795591Q1153.5853095634113 349.1190636035224 1153.5853095634113 354.0979585635768L1153.5853095634113 354.0979585635768Q1153.5853095634113 358.8753953460567 1150.189300284299 361.98360722863396Q1146.7645112655334 365.0918191112113 1141.785616305479 365.0918191112113ZM1150.074181325685 486.5135407093001L1133.094134930124 486.5135407093001L1133.094134930124 385.81323166172655L1150.074181325685 385.81323166172655L1150.074181325685 486.5135407093001ZM1223.2322795248656 488.98859831950057L1223.2322795248656 488.98859831950057Q1204.7844664069762 488.98859831950057 1190.6823939767644 475.2318827651307Q1176.6091012862062 461.44638747110736 1176.6091012862062 436.37923423291454L1176.6091012862062 436.37923423291454Q1176.6091012862062 411.08184307749383 1190.6823939767644 397.21000856450996Q1204.7844664069762 383.3093943118726 1223.2322795248656 383.3093943118726L1223.2322795248656 383.3093943118726Q1241.6513129031014 383.3093943118726 1255.753385333313 397.21000856450996Q1269.855457763525 411.08184307749383 1269.855457763525 436.37923423291454L1269.855457763525 436.37923423291454Q1269.855457763525 461.44638747110736 1255.753385333313 475.2318827651307Q1241.6513129031014 488.98859831950057 1223.2322795248656 488.98859831950057ZM1223.2322795248656 474.91530562894224L1223.2322795248656 474.91530562894224Q1236.269501587898 474.91530562894224 1244.2414894719157 464.23802221749617Q1252.2422570955869 453.5607388060501 1252.2422570955869 436.37923423291454L1252.2422570955869 436.37923423291454Q1252.2422570955869 418.967491742551 1244.2414894719157 408.17508937249096Q1236.269501587898 397.41146674208443 1223.2322795248656 397.41146674208443L1223.2322795248656 397.41146674208443Q1210.3677358997538 397.41146674208443 1202.2806290571223 408.17508937249096Q1194.2223019541439 418.967491742551 1194.2223019541439 436.37923423291454L1194.2223019541439 436.37923423291454Q1194.2223019541439 453.5607388060501 1202.2806290571223 464.23802221749617Q1210.3677358997538 474.91530562894224 1223.2322795248656 474.91530562894224ZM1313.370424119607 486.5135407093001L1296.3615979843926 486.5135407093001L1296.3615979843926 385.81323166172655L1310.4636704146042 385.81323166172655L1311.9026573972787 400.31822044708724L1312.5358116696557 400.31822044708724Q1319.5868478847615 393.2671842319814 1327.7602939463536 388.288289271927Q1335.9337400079457 383.3093943118726 1346.2944462832033 383.3093943118726L1346.2944462832033 383.3093943118726Q1376.9736487538275 383.3093943118726 1376.9736487538275 422.68007815785165L1376.9736487538275 422.68007815785165L1376.9736487538275 486.5135407093001L1359.9936023582663 486.5135407093001L1359.9936023582663 424.9824573301311Q1359.9936023582663 410.88038489991936 1355.417623753361 404.4625029571903Q1350.870424888109 398.04462101446126 1340.912634968 398.04462101446126L1340.912634968 398.04462101446126Q1333.2572242201709 398.04462101446126 1327.1271396739767 401.9586656073364Q1321.025834867436 405.901489939865 1313.370424119607 413.58568042734777L1313.370424119607 413.58568042734777L1313.370424119607 486.5135407093001ZM1450.5346633081567 488.98859831950057L1450.5346633081567 488.98859831950057Q1430.4464050300185 488.98859831950057 1416.3443325998064 475.00164484790275Q1402.2422601695948 461.01469137630494 1402.2422601695948 436.37923423291454L1402.2422601695948 436.37923423291454Q1402.2422601695948 419.8021041925023 1408.7752610709376 407.9736311949165Q1415.308261972281 396.1739379369842 1425.5538492889245 389.7560559942552Q1435.8282163452218 383.3093943118726 1447.4264514255792 383.3093943118726L1447.4264514255792 383.3093943118726Q1466.7088769934203 383.3093943118726 1477.1559224876382 396.1739379369842Q1487.6317477215098 409.0097018224423 1487.6317477215098 430.56572682290886L1487.6317477215098 430.56572682290886Q1487.6317477215098 436.580692410489 1486.9985934491328 440.2932788257896L1486.9985934491328 440.2932788257896L1419.0496281272349 440.2932788257896Q1420.0856987547604 456.2660343334785 1429.0937572663042 465.79212815878486Q1438.1018157778476 475.31822198409117 1452.6068045632082 475.31822198409117L1452.6068045632082 475.31822198409117Q1459.8592989558888 475.31822198409117 1465.960603762429 473.1597415100792Q1472.0906883086232 470.97248129641366 1477.6739578014012 467.46135305868745L1477.6739578014012 467.46135305868745L1483.688923388981 478.6278920442429Q1477.2710414462522 482.772174554346 1468.982476426046 485.8803864369233Q1460.69391140584 488.98859831950057 1450.5346633081567 488.98859831950057ZM1418.819390210007 428.0906692127084L1418.819390210007 428.0906692127084L1472.6950628413465 428.0906692127084Q1472.6950628413465 396.77831246970754 1447.8293677807283 396.77831246970754L1447.8293677807283 396.77831246970754Q1437.2672033278964 396.77831246970754 1428.8922990887295 404.9805382709532Q1420.48861510991 413.15398433254535 1418.819390210007 428.0906692127084ZM1538.8021248254213 488.98859831950057L1538.8021248254213 488.98859831950057Q1528.0385021950146 488.98859831950057 1518.19583123352 485.0745537266254Q1508.353160272025 481.13172939409685 1501.3021240569192 475.11676380651676L1501.3021240569192 475.11676380651676L1509.7921472546996 463.7199869037333Q1516.2100291974289 469.1017982189366 1523.2610654125347 472.4114682790883Q1530.3121016276405 475.7499180788936 1539.4352790977978 475.7499180788936L1539.4352790977978 475.7499180788936Q1549.3642892782532 475.7499180788936 1554.3431842383075 471.1739394739881Q1559.3220791983622 466.62674060873616 1559.3220791983622 459.9786207487792L1559.3220791983622 459.9786207487792Q1559.3220791983622 452.12175182337546 1551.9544658470677 448.0638085322329Q1544.6156322354268 444.0346449807438 1536.3270672152207 440.92643309816646L1536.3270672152207 440.92643309816646Q1525.5346648451605 436.98360876563794 1515.9222318008938 430.8823039590973Q1506.2810190169735 424.7522194129032 1506.2810190169735 411.9164555274451L1506.2810190169735 411.9164555274451Q1506.2810190169735 399.8865243522849 1515.4041964871308 391.59795933207874Q1524.498594217635 383.3093943118726 1540.8742660804728 383.3093943118726L1540.8742660804728 383.3093943118726Q1550.4003599057792 383.3093943118726 1558.4011275294502 386.64784411167784Q1566.373115413468 389.95751417182964 1572.15784308382 394.706171214656L1572.15784308382 394.706171214656L1564.0995159808417 405.4985735847161Q1558.9191628432131 401.55574925218747 1553.307113610782 399.080691641987Q1547.7238441180039 396.5768542921331 1541.075724258047 396.5768542921331L1541.075724258047 396.5768542921331Q1531.5496304327407 396.5768542921331 1527.0887707864495 400.92259497981064Q1522.6566908798113 405.29711540714163 1522.6566908798113 411.08184307749383L1522.6566908798113 411.08184307749383Q1522.6566908798113 418.1328792925997 1529.5926081363032 421.6440075303259Q1536.528525392795 425.1839155077056 1545.0185485905758 428.49358556785734L1545.0185485905758 428.49358556785734Q1556.0124091382104 432.6378680779604 1565.855080099705 438.6528336655405Q1575.6977510611996 444.6677992531207 1575.6977510611996 458.9425501212534L1575.6977510611996 458.9425501212534Q1575.6977510611996 471.1739394739881 1566.1716572358937 480.0956587665711Q1556.6167836709333 488.98859831950057 1538.8021248254213 488.98859831950057Z " fill="#006838" transform="matrix(0.5553094969594986,0,0,0.5553094969594987,0,70.10820036303606)"/></g></svg>